# xmcd
# 
# Track frame offsets:
#     182
#     9800
#     22135
#     33235
#     44402
#     56542
#     68202
#     79310
#     90027
#     101487
#     112790
#     124695
#     134837
#     145622
#     154797
#     165985
#     177040
#     189855
#     198375
#     208377
#     218240
# 
# Disc length: 3024
# 
# Revision: 7
# Processed by: cddbd v1.5.2PL0 Copyright (c) Steve Scherf et al.
# Submitted via: fre:ac v1.0.31
# 
DISCID=140bce15
DTITLE=Buck Owens - The Buck Owens Collection (1959-1990) - CD1
DYEAR=1992
DGENRE=Country
TTITLE0=Second Fiddle - (1958)
TTITLE1=Under Your Spell Again - (1959)
TTITLE2=Above And Beyond - (1959)
TTITLE3=Excuse Me (I Think I've Got A Heartache) - (1959)
TTITLE4=Foolin' Around - (1960)
TTITLE5=Loose Talk (with Rose Maddox) - (1961)
TTITLE6=Mental Cruelty (with Rose Maddox) - (1961)
TTITLE7=Under The Influence Of Love - (1961)
TTITLE8=Nobody's Fool But Yours - (1961)
TTITLE9=Save The Last Dance For Me - (1962)
TTITLE10=Kickin' Our Hearts Around - (1961)
TTITLE11=You're For Me - (1961)
TTITLE12=Act Naturally - (1963)
TTITLE13=Love's Gonna Live Here - (1963)
TTITLE14=My Heart Skips A Beat - (1964)
TTITLE15=Together Again - (1964)
TTITLE16=Close Up The Honky Tonks - (1964)
TTITLE17=Hello Trouble - (1964)
TTITLE18=A-11 - (1964)
TTITLE19=I Don't Care (Just As Long As You Love Me) - (1964)
TTITLE20=Buck's Polka - (1964)
EXTD=YEAR: 1992
EXTT0=
EXTT1=
EXTT2=
EXTT3=
EXTT4=
EXTT5=with Rose Maddox
EXTT6=with Rose Maddox
EXTT7=
EXTT8=
EXTT9=
EXTT10=
EXTT11=
EXTT12=
EXTT13=
EXTT14=
EXTT15=
EXTT16=
EXTT17=
EXTT18=
EXTT19=
EXTT20=
PLAYORDER=
